<?xml version="1.0" encoding="UTF-8"?>
<!DOCTYPE svg PUBLIC "-//W3C//DTD SVG 1.1//EN" "http://www.w3.org/Graphics/SVG/1.1/DTD/svg11.dtd">
<!-- Creator: CorelDRAW -->
<svg xmlns="http://www.w3.org/2000/svg" xml:space="preserve" width="63.6364mm" height="90mm" version="1.1" style="shape-rendering:geometricPrecision; text-rendering:geometricPrecision; image-rendering:optimizeQuality; fill-rule:evenodd; clip-rule:evenodd"
viewBox="0 0 6363.64 9000"
 xmlns:xlink="http://www.w3.org/1999/xlink"
 xmlns:xodm="http://www.corel.com/coreldraw/odm/2003">
 <defs>
  <style type="text/css">
   <![CDATA[
    .str0 {stroke:#2B2A29;stroke-width:1.84;stroke-miterlimit:22.9256}
    .str1 {stroke:#B88B40;stroke-width:1.84;stroke-miterlimit:22.9256}
    .fil0 {fill:black}
    .fil4 {fill:#2B2A29}
    .fil2 {fill:#B88B40}
    .fil1 {fill:white}
    .fil3 {fill:#2B2A29;fill-rule:nonzero}
   ]]>
  </style>
 </defs>
 <g id="Layer_x0020_1">
  <metadata id="CorelCorpID_0Corel-Layer"/>
  <g id="_1547691686944">
   <path class="fil0" d="M2934.52 4036.03l-1.76 42.31 -14.1 -33.49 15.86 -8.82zm1.76 -10.58c-14.68,0 -9.41,-8.82 -19.39,-8.82 -7.7,0 -14.33,5.61 -15.13,12.81 -0.98,8.83 5.55,12.19 11.6,15.39 -1.64,7.04 -4.65,13.91 -7.29,20.91 -12.95,34.13 -27.85,65.99 -40.57,100.46 -2.37,6.43 -5.99,13.78 -8.31,19.9 -2.65,6.99 -5.65,13.87 -7.29,20.91 7.58,-2.02 7.44,-8.99 10.35,-16.1 7.07,-17.28 46.93,-122.84 54.88,-131.98l1.76 148.08c0,-17.65 2.01,-31.43 0.19,-49.69 -0.88,-8.85 1.57,-10.95 1.57,-20.82 0,-9.12 -1.88,-10.51 -1.68,-17.53l1.68 -28.31c0,-13.83 -1.76,-20.05 -1.76,-33.49 5.38,6.19 16.63,34.6 17.15,41.99 1.83,25.98 6.03,50.66 12.11,75.07 3.2,12.86 10.23,27.17 11.28,39.84 -10.4,-4.99 -64.55,-2.5 -79.87,-0.42 -8.87,1.2 -15.16,-1.34 -25.9,-1.34 -8.86,0 -7.89,1.58 -15.87,1.76 15.37,22.95 38.5,45.83 70.51,45.83 57.22,0 39.63,-9.03 65.22,-15.86 38.37,72.51 103.99,132.68 184.32,155.92 55.64,16.1 92.55,18.48 148.87,15.08 9.8,-0.59 17.79,-2.8 26.44,-3.53l0 -30.85c-24.96,-3.15 -46.75,11.45 -102.04,-6.37 -16.98,-5.47 -35.4,-11.83 -49.92,-20.6 -29.31,-17.69 -54.28,-38.56 -75.69,-65.34 -32.14,-40.18 -54.39,-94.48 -64.85,-146.69 -6.45,-32.24 -7.18,-69.9 -7.18,-103.87l141.03 0 0 297.92c0,4.99 6.69,7.18 11.31,9.85 5.52,3.19 9.98,5.06 15.14,7.78l0 -306.73c0,-10.64 -2.51,-37.02 7.05,-37.02 7.43,0 5.48,7.96 5.35,15.8 -0.86,52.23 1.7,102.65 1.7,155.2 0,59.35 0,118.7 0,178.05 6.55,3.47 19.12,8.06 28.21,8.82l0 -322.6c-0,-16.93 -3.02,-33.39 10.58,-37.02 6.38,9.52 3.52,29.6 3.52,42.31l-0.01 91.68c-0.06,16.78 1.77,28 1.77,45.83l-0.06 162.24c0.02,10.64 1.82,12.8 1.82,22.86 11.78,0 16.24,1.76 26.45,1.76l0 -349.04c0,-11.65 1.99,-15.87 14.1,-15.87 5.36,22.99 0.92,20.16 1.8,36.87 0.38,7.07 1.73,11.34 1.73,21.3l0 306.74c11.18,0 14.72,-1.76 26.45,-1.76l0 -357.86c0,-32.94 16.15,-24.54 17.63,-42.31l-178.16 -0.09c-30.14,-0.3 3.64,14.03 3.64,28.3l0 24.68 -141.03 0c0.78,-35.05 10.21,-70.17 20.93,-102.47 9.66,-29.1 23.65,-57.27 41.5,-81.9 15.59,-21.53 40.35,-47.18 62.81,-60.59 40.89,-24.43 68.23,-30.04 119.8,-30.04 70.59,0 140.48,46.99 178.07,103.98 7.24,10.97 29.61,49.91 29.95,65.25l10.58 0c0,-45.51 -7.05,-88.61 -7.05,-133.98 -17.33,0 -26.28,-8.77 -39.98,-16.43 -100.88,-56.42 -241.37,-65.31 -341.82,-5.75 -18.3,10.85 -34.33,22.62 -50.85,35.53 -44.28,34.62 -73.66,81.88 -96.18,132.99 -10.82,24.56 -22.94,64.77 -22.94,93.4l-0.01 0.01z"/>
   <path class="fil0" d="M3648.48 4025.45l-306.74 0 -0.07 36.95c4.59,27.06 2.08,100.77 0.32,130.78 -0.5,8.62 2.26,5.88 -0.16,35.08 -1.65,19.95 0.03,43.78 1.15,63.62 1.22,21.73 -0.49,18.34 -0.88,31.64 -0.12,4.22 2.3,22.33 1.42,38.62 -1.42,26.29 -2.74,5.17 -0.1,37.11l0.09 81c0,27.55 -7.73,49.36 -38.78,49.36l0 8.82 326.13 0 0 -145.44c-8.02,-1.41 -7.33,-1.59 -9.39,5.56 -8.89,30.92 -16.65,55.85 -41.29,80.38 -6.58,6.55 -10.06,10.75 -18.12,15.38 -33.17,19.01 -54.77,11.75 -89.38,14.64 -10.86,0.91 -51.66,1.51 -62.17,-4.02 -14.59,-7.68 -14.13,-29.7 -14.11,-51.12l0 -343.76c0,-33.95 -3.39,-63.03 31.48,-70.76 12.06,-2.68 86.65,-1.52 102.5,-1.52l100.51 -1.79c22.53,-0.24 12.28,1.36 26.42,8.85l-63.46 162.18c7.51,-2 3.58,-0.37 6.2,-6.14 1.78,-3.91 2.36,-6.42 3.87,-10.23l46.58 -115.61c1.4,-3.42 2.63,-5.66 4.29,-9.81 0.94,-2.37 0.94,-2.89 1.91,-5.14l4.15 146.94 0 -149.84c4.62,5.32 6.22,11.54 8.86,17.58 2.6,5.93 5.25,11.83 8.02,18.42l43.53 106.32c0.57,1.24 1.56,3.38 2.53,4.52 2.65,3.1 -0.15,1.49 4.04,3.01 -3.05,-13.1 -25.4,-64.39 -32,-80.82l-24.9 -59.71c-2.65,-6.13 -6.95,-15.77 -8.32,-21.65 29.25,-15.47 -7.86,-42.77 -14.1,-19.39l0 0.01z"/>
   <path class="fil0" d="M3641.43 4797.58c0,-36.08 25.13,-73.05 68.66,-67.02 34.41,4.77 56.5,43.09 56.5,82.89 0,109.93 -125.16,107.91 -125.16,-15.86zm-29.97 7.05c0,33.13 6.45,58.79 32.95,78.11 3.99,2.91 10.72,7.35 15.37,9.45 28.01,12.63 35.46,3.75 55.2,18.71 18.12,13.73 40.34,27.97 64.27,34.45 20.98,5.68 39.28,3.4 58.89,-3.93 16.31,-6.1 12.88,-4.07 13.07,-10.74 -13.25,-0.07 -13.49,5.43 -31.84,2.8 -32.43,-4.65 -47.87,-17.02 -71.58,-28.95l-12.93 -8.22c31.28,-7.29 61.7,-45.58 61.7,-79.33 0,-27.8 -4.32,-55.37 -27.92,-74.33 -67.91,-54.52 -157.18,-2.46 -157.18,61.99l-0 -0z"/>
   <path class="fil0" d="M3230.68 4732.35c13.5,-2.13 44.07,6.8 44.07,38.78 0,42.75 -33.62,38.78 -58.17,38.78l-0.97 -4.74c-1.8,-11.55 -0.8,-41.71 -0.8,-55.2 0,-8.86 1.58,-7.89 1.82,-15.56l14.05 -2.06 -0.01 -0.01zm-63.46 -3.52c13.55,1.13 21.15,4.41 21.15,19.39l0 128.69c0,12.38 -8.66,15.87 -21.15,15.87l0 5.29 72.28 0 0 -5.29c-25.03,0 -24.68,-7.46 -24.68,-54.65 0,-4.24 0.55,-6.51 0.82,-9.78 0.72,-8.97 -7.11,-7.85 25.62,-7.85 1.47,5.52 27.18,41.52 32.49,48.61 3.24,4.32 5.02,7.13 8.49,10.9l10.37 10.79c11.17,9.57 28.88,12.71 44.21,9.4 7.25,-1.56 6.59,-0.5 8.45,-5.65 -8.72,-4.18 -17.21,0.69 -30.73,-16.86 -10.12,-13.13 -43.99,-55.35 -46.83,-65.99 44.11,-10.28 58.42,-75.58 -10.02,-86.94 -20.31,-3.38 -65.43,-1.2 -90.47,-1.2l0 5.29 -0.01 -0.01z"/>
   <path class="fil0" d="M2694.78 4804.63c0,-17.77 6.33,-38.83 13.81,-49.65 16.4,-23.71 29.96,-24.39 54.94,-24.39 50.51,0 78.2,92.08 42.11,140.82 -32.7,44.16 -110.86,19.39 -110.86,-66.78zm-29.97 8.82c0,48.49 39.96,88.14 88.14,88.14 29.21,0 51.66,-5.27 72.1,-26.62 41.67,-43.52 34.51,-114.52 -16.2,-142.1 -33.48,-18.21 -75.16,-17.09 -105.3,4.74 -13.55,9.82 -24.68,21.88 -30.98,37.77 -4.1,10.33 -7.77,24.67 -7.77,38.08l0.01 -0.01z"/>
   <path class="fil0" d="M2409.19 4801.11c0,12.57 5.1,32.57 9.38,41.75 2.76,5.94 5.16,10.7 8.97,15.71 28.13,37.01 57.73,43.03 103.29,43.03 20.11,0 36.27,-6.14 52.28,-11.18 12.59,-3.97 11.44,-5.14 12.82,-18.91 0.97,-9.59 3.64,-20.3 3.64,-28.97l-5.26 -1.06c-5.7,24.51 -30.09,49.54 -59.96,49.54 -31.31,0 -45.32,-4.9 -67.47,-27.72 -42.44,-43.75 -33.9,-162.66 55.13,-162.66 31.97,0 64.02,17.24 66.99,52.89l5.29 0c2.46,-5.95 0,-38.22 0,-51.12 -8.97,-0.75 -21.07,-5.06 -30.08,-6.95 -80.22,-16.82 -155.02,21.18 -155.02,105.66l0.01 0.01z"/>
   <path class="fil0" d="M4127.98 4725.3c3.38,8.38 6.03,1.77 15.93,6.99 5.18,2.73 6.99,8.12 6.99,15.93l0 121.64c0,17.79 -5.13,22.92 -22.92,22.92l0 5.29 114.62 0.03c20.71,0.29 15.05,3.86 20.96,-24.88 1.62,-7.85 4.73,-13.37 1.92,-19.22 -4.18,1.51 -2.38,0.62 -4.77,4.05 -0.38,0.54 -2.38,4.87 -2.88,5.94 -13.28,28.42 -36.8,23.51 -66.39,23.51 -25.62,0 -7.93,-59.1 -14.1,-74.04 10.67,0 26.85,-0.96 36.87,0.16 13.44,1.5 16.63,7.15 17.78,21l5.29 0c0,-13.9 2.96,-43.03 -1.76,-52.88 -16.77,12.28 11.91,21.15 -52.88,21.15 -4.06,0 -5.29,-1.22 -5.29,-5.29l0 -47.6c0,-8.86 1.59,-7.89 1.76,-15.86 32.65,0 65.89,-6.13 68.75,28.21l5.29 0c0,-16.67 3.37,-38.78 -5.29,-38.78 -12.67,0 -116.84,-1.94 -119.87,1.76l0 0.01z"/>
   <path class="fil0" d="M3867.07 4728.83c28,0.62 21.15,16.3 21.15,44.07 0,18.33 -1.68,47.72 0.72,64.5 3.37,23.58 4.95,33.07 19.07,46.16 33.54,31.08 126.58,27.71 126.59,-48.9 0,-15.59 -1.64,-84.81 2.45,-96.27 1.65,-4.61 4.84,-6.21 8.46,-7.41 2.39,-0.8 5.55,-1.13 7.07,-1.74 4.92,-1.98 2.98,0.75 4.88,-3.94 -9.13,-4.38 -44.33,-1.76 -58.17,-1.76l0 5.29c14.35,1.2 22.92,3.4 22.92,19.39l0 89.9c0,27.35 -20.16,51.12 -47.6,51.12 -34.81,0 -58.17,-15.27 -58.17,-54.65l0 -82.85c0,-29.8 13.98,-14.25 22.92,-26.44 -10.48,-5.03 -56.19,-1.76 -72.28,-1.76l0 5.29 0 -0.01z"/>
   <path class="fil0" d="M2913.37 4725.3c1.44,3.57 -0.73,2.39 10.62,5.25 4.84,1.22 7.46,1.65 9.42,6.44 4.35,10.62 2.94,83.43 2.86,97.62 -0.44,82.34 98.65,76.55 126.35,48.76 11.86,-11.89 18.14,-29.76 18.29,-46.94 0.16,-19.38 -1.21,-77.73 1.55,-93.65 2.02,-11.7 7.61,-12.97 19.53,-13.96l0 -5.29 -46.05 -0.21c-9.56,0.04 -9.52,-1.75 -10.36,5.49 13.95,1.16 22.92,3.73 22.92,19.39l0 91.67c0,64.28 -105.77,69.97 -105.77,-5.29l0 -86.38c0,-23.95 14.86,-11.92 22.92,-22.92 -7.07,-2.69 -68.94,-3.77 -72.28,0l0 0.01z"/>
   <path class="fil0" d="M3385.81 4765.85l5.29 0c7.47,-32.07 21.91,-31.73 59.94,-31.73l0 141.03c0,15.32 -8.08,17.63 -22.92,17.63l0 5.29 75.8 0c-1.08,-9.29 -7.76,-3.57 -16.81,-7.87 -5.79,-2.75 -7.87,-8.97 -7.87,-16.81l0 -139.27c26.92,0 59.17,-2.54 59.93,31.73l5.29 0 0 -41.43 -155.13 -0.88 -3.52 42.31 -0.01 -0.01z"/>
   <path class="fil0" d="M3406.97 4355.1l0 37.02c35.09,-8.17 62.06,-32.84 81.19,-33.4 13.78,-0.4 8.52,4.16 14.29,-36.82 1.21,-8.53 3.1,-20.72 4.48,-29.01 1.73,-10.42 2.83,-18.51 4.57,-28.92 1.15,-6.9 1.98,-22.94 4.76,-28.73l-10.58 0c-4.83,20.75 -27.3,54.18 -39.5,69.79 -10.51,13.45 -16.26,17.58 -27.04,27.61 -10.54,9.8 -19.27,15.64 -32.18,22.47l0 0z"/>
   <path class="fil0" d="M3581.49 4214.08c5.98,22.37 65.9,71.1 128.16,32.97 13.09,-8.02 25.21,-19.67 32.26,-32.97 -14.95,0 -23.7,-1.76 -37.02,-1.76 -14.49,0 -21.7,1.95 -35.3,1.85 -12.57,-0.09 -22.2,-1.85 -36.98,-1.85 -8.41,0 -10.06,1.58 -15.87,1.58l-19.39 -1.58c-8.85,0 -7.89,1.57 -15.87,1.76l0.01 0z"/>
   <path class="fil0" d="M2634.84 4635.4c8.79,4.22 533.65,1.76 590.55,1.76l0 -5.29 -555.3 0c-7.85,0 -34.16,-2.92 -35.26,3.52l0 0z"/>
   <polygon class="fil0" points="3445.75,4637.16 4055.7,4637.16 4055.7,4631.87 3445.75,4631.87 "/>
   <path class="fil0" d="M3939.35 5037.33c51.32,0 107.04,2.01 157.75,-1.18 1.96,-0.12 2.21,-0.09 4.95,-0.25l38.27 -0.33 0 -5.29c-68.97,0 -133.25,-1.76 -200.96,-1.76l0 8.82z"/>
   <path class="fil0" d="M2534.35 5035.57c28.48,0 50.72,1.76 79.33,1.76l123.4 0 0 -8.82c-17.04,0 -34.08,0.02 -51.12,0 -18.85,-0.02 -31.6,1.77 -51.12,1.76l-91.88 -0.21c-8.24,0.44 -6.78,-1.35 -8.6,5.5l0 0z"/>
   <path class="fil0" d="M3315.3 4631.87c1.69,6.33 0.63,2.24 4.38,6.2 5.07,5.37 10.65,12.61 16.78,16.72 4.36,-2.92 19.54,-16.87 21.15,-22.92 -10.38,-2.77 -13.12,-14.01 -21.15,-19.39 -7.34,4.92 -11.42,16.79 -21.15,19.39z"/>
   <path class="fil0" d="M3366.42 4631.87c1.74,6.53 5.95,8.64 14.1,14.1 2.03,-2.77 4.44,-4.47 7.43,-6.67 4.02,-2.95 4.09,-3.4 10.2,-3.91l-19.39 -14.1c-3.06,4.56 -6.26,8.95 -12.34,10.58z"/>
   <path class="fil0" d="M3272.99 4635.4c8.59,0.19 12.12,4.53 21.15,10.58 3.06,-4.56 6.26,-8.96 12.34,-10.58l-12.7 -13.75c-3.25,2.06 -5.67,4.63 -9.81,7.09 -6.33,3.77 -7.21,1.52 -10.98,6.65z"/>
   <polygon class="fil1" points="2918.65,4044.84 2932.76,4078.34 2934.52,4036.03 "/>
   <path class="fil2 str0" d="M3347.03 3972.56l-178.17 -0.09c-30.14,-0.3 3.64,14.03 3.64,28.3l0 24.68 -141.03 0c0.78,-35.05 10.21,-70.17 20.93,-102.47 9.66,-29.1 23.66,-57.27 41.5,-81.9 15.6,-21.53 40.35,-47.18 62.81,-60.59 40.89,-24.43 68.23,-30.04 119.8,-30.04 70.6,0 140.48,46.99 178.07,103.99 7.24,10.97 29.6,49.91 29.95,65.25l10.58 0c0,-45.51 -7.05,-88.61 -7.05,-133.98 -17.33,0 -26.28,-8.77 -39.98,-16.43 -100.88,-56.43 -241.37,-65.31 -341.82,-5.75 -18.3,10.85 -34.33,22.62 -50.85,35.53 -44.28,34.62 -73.66,81.88 -96.18,132.99 -10.82,24.56 -22.94,64.77 -22.94,93.41 -14.68,0 -9.41,-8.82 -19.39,-8.82 -7.7,0 -14.33,5.61 -15.13,12.81 -0.98,8.83 5.55,12.19 11.61,15.39 -1.64,7.04 -4.65,13.91 -7.3,20.91 -12.95,34.13 -27.85,65.99 -40.57,100.46 -2.37,6.43 -5.98,13.78 -8.31,19.9 -2.65,6.99 -5.66,13.87 -7.29,20.91 7.58,-2.02 7.44,-8.99 10.35,-16.1 7.07,-17.28 46.93,-122.84 54.88,-131.98l1.76 148.08c0,-17.65 2.01,-31.43 0.18,-49.69 -0.88,-8.85 1.58,-10.95 1.58,-20.82 0,-9.12 -1.88,-10.51 -1.68,-17.53l1.68 -28.31c0,-13.83 -1.76,-20.05 -1.76,-33.49 5.37,6.19 16.63,34.6 17.15,41.99 1.83,25.98 6.03,50.66 12.11,75.07 3.2,12.86 10.23,27.17 11.28,39.84 -10.4,-4.99 -64.55,-2.5 -79.87,-0.42 -8.88,1.2 -15.16,-1.34 -25.9,-1.34 -8.86,0 -7.89,1.58 -15.87,1.76 15.37,22.95 38.5,45.83 70.51,45.83 57.23,0 39.64,-9.03 65.23,-15.86 38.36,72.51 103.98,132.68 184.32,155.92 55.64,16.1 92.55,18.48 148.87,15.08 9.8,-0.59 17.79,-2.8 26.44,-3.53l0 -30.85c-24.95,-3.15 -46.75,11.45 -102.04,-6.37 -16.98,-5.47 -35.4,-11.83 -49.92,-20.6 -29.31,-17.69 -54.28,-38.56 -75.69,-65.34 -32.14,-40.18 -54.39,-94.48 -64.85,-146.69 -6.45,-32.24 -7.18,-69.9 -7.18,-103.87l141.03 0 0 297.92c0,4.99 6.69,7.18 11.31,9.85 5.52,3.19 9.98,5.06 15.14,7.78l0 -306.73c0,-10.64 -2.51,-37.02 7.05,-37.02 7.43,0 5.48,7.96 5.35,15.8 -0.86,52.23 1.7,102.65 1.7,155.2 0,59.35 0,118.7 0,178.05 6.55,3.47 19.12,8.06 28.21,8.82l0 -322.6c-0.01,-16.93 -3.02,-33.39 10.58,-37.02 6.38,9.52 3.52,29.6 3.52,42.31l-0.01 91.68c-0.06,16.78 1.77,28 1.77,45.83l-0.06 162.24c0.02,10.64 1.82,12.8 1.82,22.86 11.78,0 16.25,1.76 26.45,1.76l0 -349.04c0,-11.65 1.99,-15.87 14.1,-15.87 5.35,22.99 0.91,20.16 1.8,36.87 0.38,7.07 1.73,11.34 1.73,21.3l0 306.74c11.18,0 14.72,-1.76 26.45,-1.76l0 -357.86c0,-32.94 16.15,-24.54 17.63,-42.31l-0.01 0zm-412.51 63.46l-1.76 42.31 -14.1 -33.49 15.86 -8.82z"/>
   <path class="fil2 str0" d="M3343.51 4362.15c-1.42,26.29 -2.74,5.17 -0.1,37.11l0.09 81c0,27.55 -7.73,49.36 -38.78,49.36l0 8.82 326.13 0 0 -145.44c-8.02,-1.41 -7.34,-1.59 -9.39,5.56 -8.89,30.92 -16.65,55.85 -41.29,80.38 -6.58,6.55 -10.06,10.75 -18.12,15.38 -33.17,19.01 -54.77,11.75 -89.39,14.64 -10.86,0.91 -51.66,1.51 -62.16,-4.02 -14.6,-7.68 -14.13,-29.7 -14.11,-51.12l0 -343.76c0,-33.95 -3.38,-63.03 31.48,-70.76 12.06,-2.68 86.65,-1.52 102.49,-1.52l100.51 -1.79c22.53,-0.24 12.27,1.36 26.42,8.85l-63.46 162.18c7.51,-2 3.58,-0.37 6.2,-6.14 1.78,-3.91 2.36,-6.42 3.87,-10.23l46.57 -115.61c1.4,-3.42 2.64,-5.66 4.29,-9.81 0.94,-2.37 0.94,-2.89 1.91,-5.14l4.15 146.94 0 -149.84c4.62,5.32 6.22,11.54 8.87,17.58 2.59,5.93 5.25,11.83 8.02,18.42l43.53 106.32c0.57,1.24 1.56,3.38 2.53,4.52 2.65,3.1 -0.15,1.49 4.04,3.01 -3.05,-13.1 -25.4,-64.39 -32,-80.82l-24.91 -59.71c-2.65,-6.13 -6.95,-15.77 -8.32,-21.65 29.25,-15.47 -7.86,-42.77 -14.1,-19.39l-306.74 0 -0.07 36.95c4.59,27.06 2.08,100.77 0.32,130.78 -0.5,8.61 2.26,5.87 -0.16,35.08 -1.65,19.95 0.03,43.77 1.15,63.62 1.22,21.73 -0.49,18.34 -0.88,31.64 -0.12,4.22 2.3,22.33 1.42,38.62l0 0.01z"/>
   <path class="fil2 str0" d="M3581.49 4214.08c5.98,22.37 65.9,71.1 128.16,32.97 13.09,-8.02 25.21,-19.67 32.26,-32.97 -14.95,0 -23.7,-1.76 -37.02,-1.76 -14.49,0 -21.7,1.95 -35.3,1.85 -12.57,-0.09 -22.2,-1.85 -36.98,-1.85 -8.41,0 -10.06,1.58 -15.87,1.58l-19.39 -1.58c-8.85,0 -7.89,1.57 -15.87,1.76l0.01 0z"/>
   <path class="fil2 str0" d="M3581.49 4214.08c5.98,22.37 65.9,71.1 128.16,32.97 13.09,-8.02 25.21,-19.67 32.26,-32.97 -14.95,0 -23.7,-1.76 -37.02,-1.76 -14.49,0 -21.7,1.95 -35.3,1.85 -12.57,-0.09 -22.2,-1.85 -36.98,-1.85 -8.41,0 -10.06,1.58 -15.87,1.58l-19.39 -1.58c-8.85,0 -7.89,1.57 -15.87,1.76l0.01 0z"/>
   <path class="fil2 str0" d="M3581.49 4214.08c5.98,22.37 65.9,71.1 128.16,32.97 13.09,-8.02 25.21,-19.67 32.26,-32.97 -14.95,0 -23.7,-1.76 -37.02,-1.76 -14.49,0 -21.7,1.95 -35.3,1.85 -12.57,-0.09 -22.2,-1.85 -36.98,-1.85 -8.41,0 -10.06,1.58 -15.87,1.58l-19.39 -1.58c-8.85,0 -7.89,1.57 -15.87,1.76l0.01 0z"/>
   <path class="fil2 str0" d="M3581.49 4214.08c5.98,22.37 65.9,71.1 128.16,32.97 13.09,-8.02 25.21,-19.67 32.26,-32.97 -14.95,0 -23.7,-1.76 -37.02,-1.76 -14.49,0 -21.7,1.95 -35.3,1.85 -12.57,-0.09 -22.2,-1.85 -36.98,-1.85 -8.41,0 -10.06,1.58 -15.87,1.58l-19.39 -1.58c-8.85,0 -7.89,1.57 -15.87,1.76l0.01 0z"/>
   <path class="fil2 str0" d="M3581.49 4214.08c5.98,22.37 65.9,71.1 128.16,32.97 13.09,-8.02 25.21,-19.67 32.26,-32.97 -14.95,0 -23.7,-1.76 -37.02,-1.76 -14.49,0 -21.7,1.95 -35.3,1.85 -12.57,-0.09 -22.2,-1.85 -36.98,-1.85 -8.41,0 -10.06,1.58 -15.87,1.58l-19.39 -1.58c-8.85,0 -7.89,1.57 -15.87,1.76l0.01 0z"/>
   <path class="fil2 str0" d="M3581.49 4214.08c5.98,22.37 65.9,71.1 128.16,32.97 13.09,-8.02 25.21,-19.67 32.26,-32.97 -14.95,0 -23.7,-1.76 -37.02,-1.76 -14.49,0 -21.7,1.95 -35.3,1.85 -12.57,-0.09 -22.2,-1.85 -36.98,-1.85 -8.41,0 -10.06,1.58 -15.87,1.58l-19.39 -1.58c-8.85,0 -7.89,1.57 -15.87,1.76l0.01 0z"/>
   <path class="fil2 str1" d="M3581.49 4214.08c5.98,22.37 65.9,71.1 128.16,32.97 13.09,-8.02 25.21,-19.67 32.26,-32.97 -14.95,0 -23.7,-1.76 -37.02,-1.76 -14.49,0 -21.7,1.95 -35.3,1.85 -12.57,-0.09 -22.2,-1.85 -36.98,-1.85 -8.41,0 -10.06,1.58 -15.87,1.58l-19.39 -1.58c-8.85,0 -7.89,1.57 -15.87,1.76l0.01 0z"/>
   <path class="fil2 str1" d="M3396.39 4453.82l0 -343.76c0,-33.95 -3.39,-63.03 31.48,-70.76 12.06,-2.68 86.65,-1.52 102.5,-1.52l100.51 -1.79c22.53,-0.24 12.28,1.36 26.42,8.85l-63.46 162.18c7.51,-2 3.58,-0.37 6.2,-6.14 1.78,-3.91 2.36,-6.42 3.87,-10.23l46.58 -115.61c1.4,-3.42 2.63,-5.66 4.29,-9.81 0.94,-2.37 0.94,-2.89 1.91,-5.14l4.15 146.94 0 -149.84c4.62,5.32 6.22,11.54 8.86,17.58 2.6,5.93 5.25,11.83 8.02,18.42l43.53 106.32c0.57,1.24 1.56,3.38 2.53,4.52 2.65,3.1 -0.15,1.49 4.04,3.01 -3.05,-13.1 -25.4,-64.39 -32,-80.82l-24.9 -59.71c-2.65,-6.13 -6.95,-15.77 -8.32,-21.65 29.25,-15.47 -7.86,-42.77 -14.1,-19.39l-306.74 0 -0.07 36.95c4.59,27.06 2.08,100.77 0.32,130.78 -0.5,8.61 2.26,5.87 -0.16,35.08 -1.65,19.95 0.03,43.77 1.15,63.62 1.22,21.73 -0.49,18.34 -0.88,31.64 -0.12,4.22 2.3,22.33 1.42,38.62 -1.42,26.29 -2.74,5.17 -0.1,37.11l0.09 81c0,27.55 -7.73,49.36 -38.78,49.36l0 8.82 326.13 0 0 -145.44c-8.02,-1.41 -7.33,-1.59 -9.39,5.56 -8.89,30.92 -16.65,55.85 -41.29,80.38 -6.58,6.55 -10.06,10.75 -18.12,15.37 -33.17,19.01 -54.77,11.75 -89.38,14.64 -10.86,0.91 -51.66,1.51 -62.17,-4.02 -14.59,-7.68 -14.13,-29.7 -14.11,-51.12l0 0.01z"/>
   <path class="fil2 str1" d="M3329.4 4372.73l0 -357.86c0,-32.94 16.15,-24.54 17.63,-42.31l-178.17 -0.09c-30.14,-0.3 3.64,14.03 3.64,28.3l0 24.68 -141.03 0c0.78,-35.05 10.21,-70.17 20.93,-102.47 9.66,-29.1 23.66,-57.27 41.5,-81.9 15.6,-21.53 40.35,-47.18 62.81,-60.59 40.89,-24.43 68.23,-30.04 119.8,-30.04 70.6,0 140.48,46.99 178.07,103.99 7.24,10.97 29.6,49.91 29.95,65.25l10.58 0c0,-45.51 -7.05,-88.61 -7.05,-133.98 -17.33,0 -26.28,-8.77 -39.98,-16.43 -100.88,-56.43 -241.37,-65.31 -341.82,-5.75 -18.3,10.85 -34.33,22.62 -50.85,35.53 -44.28,34.62 -73.66,81.88 -96.18,132.99 -10.82,24.56 -22.94,64.77 -22.94,93.41 -14.68,0 -9.41,-8.82 -19.39,-8.82 -7.7,0 -14.33,5.61 -15.13,12.81 -0.98,8.83 5.55,12.19 11.61,15.39 -1.64,7.04 -4.65,13.91 -7.3,20.91 -12.95,34.13 -27.85,65.99 -40.57,100.46 -2.37,6.43 -5.98,13.78 -8.31,19.9 -2.65,6.99 -5.66,13.87 -7.29,20.91 7.58,-2.02 7.44,-8.99 10.35,-16.1 7.07,-17.28 46.93,-122.84 54.88,-131.98l1.76 148.08c0,-17.65 2.01,-31.43 0.18,-49.69 -0.88,-8.85 1.58,-10.95 1.58,-20.82 0,-9.12 -1.88,-10.51 -1.68,-17.53l1.68 -28.31c0,-13.83 -1.76,-20.05 -1.76,-33.49 5.37,6.19 16.63,34.6 17.15,41.99 1.83,25.98 6.03,50.66 12.11,75.07 3.2,12.86 10.23,27.17 11.28,39.84 -10.4,-4.99 -64.55,-2.5 -79.87,-0.42 -8.88,1.2 -15.16,-1.34 -25.9,-1.34 -8.86,0 -7.89,1.58 -15.87,1.76 15.37,22.95 38.5,45.83 70.51,45.83 57.23,0 39.64,-9.03 65.23,-15.86 38.36,72.51 103.98,132.68 184.32,155.92 55.64,16.1 92.55,18.48 148.87,15.08 9.8,-0.59 17.79,-2.8 26.44,-3.53l0 -30.85c-24.95,-3.15 -46.75,11.45 -102.04,-6.37 -16.98,-5.47 -35.4,-11.83 -49.92,-20.6 -29.31,-17.69 -54.28,-38.56 -75.69,-65.34 -32.14,-40.18 -54.39,-94.48 -64.85,-146.69 -6.45,-32.24 -7.18,-69.9 -7.18,-103.87l141.03 0 0 297.92c0,4.99 6.69,7.18 11.31,9.85 5.52,3.19 9.98,5.06 15.14,7.78l0 -306.73c0,-10.64 -2.51,-37.02 7.05,-37.02 7.43,0 5.48,7.96 5.35,15.8 -0.86,52.23 1.7,102.65 1.7,155.2 0,59.35 0,118.7 0,178.05 6.55,3.47 19.12,8.06 28.21,8.82l0 -322.6c-0.01,-16.93 -3.02,-33.39 10.58,-37.02 6.38,9.52 3.52,29.6 3.52,42.31l-0.01 91.68c-0.06,16.78 1.77,28 1.77,45.83l-0.06 162.24c0.02,10.64 1.82,12.8 1.82,22.86 11.78,0 16.25,1.76 26.45,1.76l0 -349.04c0,-11.65 1.99,-15.87 14.1,-15.87 5.35,22.99 0.91,20.16 1.8,36.87 0.38,7.07 1.73,11.34 1.73,21.3l0 306.74c11.18,0 14.72,-1.76 26.45,-1.76l-0.01 0.01zm-394.88 -336.71l-1.76 42.31 -14.1 -33.49 15.86 -8.82z"/>
   <path class="fil3" d="M2952.02 5067.89c-2.08,7.65 -3.12,14.8 -3.12,21.51 0,1.13 -1.89,1.59 -5.72,1.41 -9.45,-0.46 -21.13,-0.71 -35.05,-0.71 -14.8,0 -28.02,0.31 -39.61,0.92 -1.74,0.12 -2.82,-0.03 -3.22,-0.4 -0.43,-0.4 -0.64,-1.31 -0.64,-2.75 0,-1.59 1.28,-2.48 3.86,-2.72 5.87,-0.61 8.81,-3.73 8.81,-9.39l0 -82.55c0,-4.19 -0.58,-7.28 -1.71,-9.33 -1.38,-2.38 -4.01,-4.22 -7.89,-5.54 -2.35,-0.85 -3.37,-2.2 -3.06,-4.07 0.18,-1.34 0.58,-2.11 1.16,-2.35 0.61,-0.25 2.14,-0.22 4.68,0.09 8.72,0.92 19.12,0.82 31.17,-0.28 2.17,-0.18 3.4,-0.25 3.7,-0.18 1.19,0.18 1.86,0.98 2.05,2.38 0.18,1.62 -0.21,2.72 -1.16,3.3 -0.37,0.25 -1.59,0.61 -3.67,1.07 -4.16,0.95 -6.79,2.05 -7.86,3.27 -1.07,1.22 -1.62,3.82 -1.62,7.77l0 80.23c0,5.02 1.68,8.44 5.05,10.28 3.39,1.81 9.52,2.73 18.42,2.73 8.47,0 14.77,-1.1 18.85,-3.27 4.09,-2.17 7.43,-6.27 10,-12.3 0.98,-2.38 2.45,-3.18 4.44,-2.42 1.92,0.49 2.66,1.59 2.17,3.3l0 0.01z"/>
   <path id="_1" class="fil3" d="M3092.6 5088.48c-0.37,1.65 -0.73,2.6 -1.16,2.91 -0.37,0.25 -1.19,0.18 -2.51,-0.18 -8.53,-1.59 -21.05,-1.78 -37.47,-0.55 -3.12,0.25 -4.8,-0.36 -5.11,-1.8 -0.31,-1.68 0.67,-3 2.97,-3.88 6.45,-2.63 9.66,-5.05 9.66,-7.31 0,-0.92 -0.37,-2.17 -1.07,-3.85 -4.4,-10.58 -8.1,-19.09 -11.01,-25.54 -4.25,0.25 -11.72,0.37 -22.42,0.37 -8.84,0 -16.36,-0.25 -22.58,-0.74 -2.08,5.14 -5.02,12.33 -8.78,21.51 -0.82,2.11 -1.25,3.98 -1.25,5.66 0,3.34 1.84,5.78 5.48,7.34 5.62,2.38 8.38,4.22 8.26,5.47 -0.12,2.02 -2.02,2.85 -5.66,2.42 -11.26,-1.22 -21.66,-0.86 -31.23,1.1 -2.51,0.55 -3.92,-0.37 -4.22,-2.69 -0.25,-1.56 1.72,-3.21 5.85,-5.02 4.43,-1.86 8.17,-6.12 11.22,-12.85 11.59,-25.27 19.12,-41.88 22.48,-49.83 8.23,-19.09 14.04,-34.62 17.5,-46.68 0.46,-1.83 2.84,-3.55 7.13,-5.17 1.04,-0.36 2.32,1.38 3.88,5.2 12.91,31.05 27.38,64.23 43.4,99.59 2.54,5.62 6.89,9.36 12.97,11.19 2.75,0.79 3.98,1.89 3.67,3.33l0 -0.01zm-48.67 -47.2c-3.94,-8.96 -10.09,-22.85 -18.44,-41.66 -0.49,-1.01 -1.01,-1.53 -1.62,-1.53 -0.61,0 -1.1,0.52 -1.53,1.53l-17.1 41.29c6.39,0.49 13.55,0.74 21.5,0.74 4.9,0 10.62,-0.12 17.19,-0.37l0 0z"/>
   <path id="_2" class="fil3" d="M3296.71 4976.07c0,1.99 -1.92,3.58 -5.75,4.71 -4.1,1.25 -7.59,5.35 -10.4,12.36 -13.43,33.1 -25.94,64.79 -37.47,95.04 -0.95,2.51 -3.15,4.25 -6.57,5.23 -0.18,0.12 -0.4,0.18 -0.64,0.18 -1.65,0 -2.84,-1.81 -3.55,-5.38 -2.75,-13.03 -12.75,-39 -29.98,-77.91 -7.43,18.78 -17.32,44.75 -29.64,77.88 -0.89,2.51 -3.03,4.25 -6.36,5.23 -0.24,0.06 -0.49,0.12 -0.74,0.18 -1.68,0 -2.84,-1.81 -3.48,-5.38 -2.29,-12.02 -15.42,-44.75 -39.4,-98.22 -2.48,-5.5 -6.7,-8.93 -12.66,-10.31 -2.94,-0.64 -4.4,-1.5 -4.4,-2.57 0,-2.48 1.28,-3.61 3.85,-3.37 9.27,0.82 20.83,0.24 34.72,-1.74 2.32,-0.37 3.79,-0.4 4.37,-0.09 0.55,0.28 0.89,1.13 1.07,2.54 0.31,1.13 -1.16,2.48 -4.37,4.1 -3.82,1.93 -5.75,4.1 -5.75,6.55 0,1.07 0.28,2.32 0.82,3.76 5.96,15.84 15.54,41.08 28.63,75.65 0.43,1.16 1.01,1.71 1.71,1.71 0.67,0 1.2,-0.55 1.62,-1.71l24.71 -66.1c-0.95,-1.99 -2.29,-4.8 -4.04,-8.44 -2.14,-4.47 -5.93,-7.96 -11.38,-10.49 -2.75,-1.25 -4.04,-2.45 -3.85,-3.61 0.31,-2.63 1.65,-3.76 4.04,-3.4 10.58,1.74 22.48,1.93 35.63,0.55 2.38,-0.25 3.88,-0.21 4.43,0.12 0.58,0.33 0.86,1.25 0.86,2.78 0,1.5 -1.53,2.72 -4.59,3.67 -5.88,1.84 -8.81,3.79 -8.81,5.82 0,0.79 0.31,1.99 0.89,3.58l28.88 75.52c0.43,1.22 1.04,1.8 1.81,1.8 0.67,0 1.22,-0.61 1.71,-1.8l26.73 -71.58c0.49,-1.44 0.73,-2.72 0.73,-3.85 0,-4.1 -3.58,-7.37 -10.68,-9.76 -2.69,-0.89 -3.98,-2.23 -3.85,-4.01 0.12,-1.32 0.46,-2.11 0.98,-2.38 0.67,-0.31 2.29,-0.28 4.92,0.09 11.14,1.31 21.59,1.44 31.38,0.36 2.57,-0.24 3.85,0.64 3.85,2.69z"/>
   <path id="_3" class="fil3" d="M3444.48 4973.8c-0.98,3.97 -1.59,10.68 -1.84,20.1 0,1.87 -0.86,2.78 -2.54,2.78 -1.68,0 -2.85,-0.8 -3.52,-2.42 -1.81,-4.34 -3.49,-7.37 -5.11,-9.08 -1.89,-2.02 -4.43,-3.24 -7.62,-3.67 -3.39,-0.52 -11.87,-0.79 -25.45,-0.79 -3.09,0 -5.11,0.34 -6.08,0.98 -0.58,0.43 -0.89,1.32 -0.89,2.69l0 40.44c0,1.38 0.86,2.02 2.6,1.96 5.32,-0.06 13.03,-0.43 23.16,-1.07 1.96,-0.25 3.3,-0.86 3.97,-1.9 0.71,-1.04 1.38,-3.73 2.02,-8.05 0.43,-2.38 1.81,-3.3 4.19,-2.75 2.05,0.43 2.91,1.35 2.6,2.75 -1.71,8.08 -2.26,18.54 -1.65,31.48 0.06,1.53 -0.92,2.35 -2.94,2.48 -1.65,0.18 -2.69,-0.7 -3.12,-2.66 -1.56,-7.37 -4.44,-11.32 -8.66,-11.81 -4.22,-0.52 -11.07,-0.77 -20.56,-0.77 -1.07,0 -1.62,0.4 -1.62,1.17l0 40.4c0,3 1.1,5.05 3.3,6.12 1.74,0.89 5.48,1.68 11.19,2.42 2.94,0.31 4.22,1.59 3.85,3.88 -0.37,1.99 -3,2.78 -7.89,2.35 -14.16,-1.13 -25.85,-1.07 -35.05,0.18 -2.57,0.37 -3.85,-0.71 -3.85,-3.15 0,-1.59 1.28,-2.48 3.85,-2.72 5.88,-0.67 8.81,-5.78 8.81,-15.42l0 -76.72c0,-3.94 -0.7,-6.97 -2.11,-9.08 -1.41,-2.12 -4.04,-4.04 -7.86,-5.78 -2.38,-1.07 -3.3,-2.54 -2.69,-4.37 0.31,-1.13 0.77,-1.74 1.44,-1.87 0.58,-0.18 2.17,-0.06 4.75,0.37 3.76,0.61 12.63,0.92 26.64,0.92 16.49,0 30.74,-0.37 42.76,-1.1 3.98,-0.24 6,0.09 6,0.98 0,0.24 -0.03,0.49 -0.09,0.74l-0 0.01z"/>
   <path id="_4" class="fil3" d="M3512.39 4974.41c0,1.5 -1.59,2.73 -4.8,3.67 -7.19,2.11 -10.8,4.93 -10.8,8.38l0 87.18c0,5.63 3.3,9.02 9.94,10.22 3.27,0.58 4.93,1.74 4.93,3.49 0,1.47 -0.28,2.41 -0.85,2.75 -0.55,0.37 -2.11,0.49 -4.62,0.37 -15.76,-0.64 -27.96,-0.64 -36.55,0 -2.2,0.18 -3.49,-0.25 -3.85,-1.25 -0.12,-0.43 -0.18,-1.07 -0.18,-1.89 0,-1.22 1.35,-2.11 4.04,-2.72 5.02,-1.13 7.92,-1.96 8.69,-2.42 1.92,-1.19 2.87,-3.64 2.87,-7.34l0 -87.94c0,-4.95 -3.37,-7.98 -10.09,-9.15 -2.81,-0.46 -4.22,-1.32 -4.22,-2.57 0,-1.72 0.22,-2.75 0.67,-3.15 0.46,-0.39 1.5,-0.49 3.18,-0.31 11.65,1.22 23.68,1.13 36.09,-0.31 2.35,-0.28 3.7,-0.36 4.13,-0.24 0.95,0.31 1.44,1.38 1.44,3.24l-0 -0.01z"/>
   <path id="_5" class="fil3" d="M3642.73 5090.43c0.06,1.38 -1.1,2.05 -3.48,2.05 -21.44,0 -41.69,-18.35 -60.75,-55.06 -7.34,0.33 -11.26,0.52 -11.75,0.55l0 37.56c0,2.82 0.67,4.68 2.05,5.6 1.38,0.92 4.44,1.74 9.18,2.48 3.27,0.52 4.93,1.71 4.93,3.52 0,1.5 -0.28,2.42 -0.79,2.78 -0.55,0.36 -2.05,0.49 -4.5,0.36 -10.83,-0.46 -22.64,-0.25 -35.45,0.67 -2.57,0.15 -3.85,-0.89 -3.85,-3.12 0,-1.56 1.28,-2.45 3.85,-2.69 5.87,-0.58 8.81,-3.79 8.81,-9.58l0 -85.83c0,-5.69 -3.3,-9.18 -9.94,-10.49 -3.27,-0.64 -4.92,-1.68 -4.92,-3.12 0,-2.2 1.1,-3.3 3.3,-3.3 0.67,0 1.38,0.06 2.17,0.18 2.45,0.37 6.18,0.55 11.19,0.55 1.68,0 5.87,-0.09 12.63,-0.28 6.76,-0.18 13.03,-0.28 18.81,-0.28 11.96,0 21.41,2.23 28.33,6.73 7.77,4.96 11.65,12.27 11.65,21.93 0,16.55 -9.55,27.5 -28.63,32.82 6.08,13.86 13.24,25.73 21.47,35.64 8.41,10.16 16,15.78 22.73,16.86 1.87,0.31 2.84,1.44 2.97,3.45l0.01 0zm-35.97 -86.66c0,-8.84 -2.26,-15.14 -6.82,-18.9 -4.52,-3.76 -11.81,-5.63 -21.81,-5.63 -4.47,0 -7.49,0.61 -9.05,1.84 -1.56,1.22 -2.33,3.85 -2.33,7.92l0 42.18c14.47,-0.49 24.87,-3.03 31.23,-7.62 5.84,-4.22 8.78,-10.83 8.78,-19.79l0 -0.01z"/>
   <path id="_6" class="fil3" d="M3811.91 5087.31c0,1.5 -0.31,2.42 -0.95,2.78 -0.61,0.37 -2.2,0.49 -4.77,0.37 -15.6,-0.64 -27.71,-0.64 -36.31,0 -2.69,0.12 -4.04,-0.95 -4.04,-3.24 0,-1.25 1.35,-2.17 4.04,-2.69 5.32,-1.19 8.5,-2.2 9.61,-2.96 1.31,-1.01 1.89,-3.27 1.77,-6.79l-3.03 -76.47c-0.06,-1.56 -0.46,-2.32 -1.22,-2.32 -0.58,0 -1.16,0.52 -1.68,1.59 -10.68,21.44 -18.17,36.68 -22.51,45.73 -8.69,18.02 -14.84,31.68 -18.42,41.02 -1.62,4.37 -2.48,6.61 -2.54,6.73 -0.58,1.07 -1.44,1.77 -2.57,2.12 -0.58,0.15 -1.1,0.25 -1.5,0.25 -1.19,0 -2.27,-1.77 -3.21,-5.29 -3.76,-13.52 -16.7,-43.53 -38.88,-90.02 -0.64,-1.38 -1.38,-2.05 -2.14,-2.05 -0.95,0 -1.44,0.92 -1.5,2.75 -0.86,17.74 -1.87,41.36 -3.03,70.84 -0.37,7.89 3.61,12.57 11.93,14.07 3.3,0.58 4.96,1.77 4.96,3.55 0,1.53 -0.31,2.48 -0.95,2.84 -0.61,0.37 -2.17,0.49 -4.68,0.37 -13.77,-0.52 -24.41,-0.52 -31.99,0 -2.69,0.12 -4.04,-0.95 -4.04,-3.24 0,-1.25 1.34,-2.17 4.04,-2.69 4.77,-1.04 7.92,-2.6 9.42,-4.77 1.2,-1.65 1.84,-4.68 1.96,-9.02l3.12 -79.28c0.12,-3.46 -0.58,-6.12 -2.08,-7.99 -1.31,-1.59 -3.97,-3.33 -8.02,-5.2 -2.87,-1.31 -4.22,-2.69 -4.04,-4.16 0.12,-1.59 1.41,-2.2 3.85,-1.86 9.18,1.28 17.19,1.53 24.07,0.7 2.63,-0.28 4.44,-0.25 5.38,0.18 0.95,0.4 1.8,1.44 2.51,3.12l37.5 85.89c0.49,1.19 0.92,1.77 1.28,1.77 0.33,0 0.89,-0.8 1.59,-2.42 2.38,-5.14 15.75,-32.88 40.07,-83.17 1.5,-3.06 3.39,-4.58 5.65,-4.58 5.54,0 13.28,-0.79 23.22,-2.42 2.26,-0.34 3.67,-0.46 4.19,-0.34 1.01,0.28 1.53,1.35 1.53,3.22 0,1.41 -1.59,2.63 -4.74,3.64 -7.49,2.32 -11.17,5.14 -11.04,8.45l3.3 87.27c0.12,3.49 0.98,5.93 2.6,7.38 1.32,1.25 3.73,2.2 7.25,2.87 3.33,0.64 5.02,1.84 5.02,3.52l0.02 -0.02z"/>
   <path class="fil2 str1" d="M3581.49 4214.08c5.98,22.37 65.9,71.1 128.16,32.97 13.09,-8.02 25.21,-19.67 32.26,-32.97 -14.95,0 -23.7,-1.76 -37.02,-1.76 -14.49,0 -21.7,1.95 -35.3,1.85 -12.57,-0.09 -22.2,-1.85 -36.98,-1.85 -8.41,0 -10.06,1.58 -15.87,1.58l-19.39 -1.58c-8.85,0 -7.89,1.57 -15.87,1.76l0.01 0z"/>
   <path class="fil4 str0" d="M3150.62 3948.67l202.14 0 0 7.15c0,3.93 -3.22,7.15 -7.15,7.15l-187.84 0c-3.93,0 -7.15,-3.22 -7.15,-7.15l0 -7.15 -0.01 0z"/>
   <path class="fil4 str0" d="M3121.72 3917.7l259.94 0 0 9.19c0,5.06 -4.14,9.19 -9.19,9.19l-241.55 0c-5.06,0 -9.2,-4.14 -9.2,-9.19l0 -9.19 0.01 0z"/>
   <path class="fil4 str0" d="M3091.96 3882.22l319.45 0 0 11.3c0,6.21 -5.08,11.3 -11.3,11.3l-296.86 0c-6.21,0 -11.3,-5.08 -11.3,-11.3l0 -11.3z"/>
  </g>
 </g>
</svg>
